{
	"asset":{
		"generator":"Khronos glTF Blender I/O v5.1.19",
		"version":"2.0"
	},
	"extensionsUsed":[
		"KHR_materials_emissive_strength"
	],
	"scene":0,
	"scenes":[
		{
			"name":"Scene",
			"nodes":[
				0
			]
		}
	],
	"nodes":[
		{
			"mesh":0,
			"name":"helmet",
			"rotation":[
				0.70710688829422,
				0,
				0,
				0.7071066498756409
			]
		}
	],
	"materials":[
		{
			"emissiveFactor":[
				1,
				1,
				1
			],
			"emissiveTexture":{
				"index":0
			},
			"extensions":{
				"KHR_materials_emissive_strength":{
					"emissiveStrength":15
				}
			},
			"name":"helmet",
			"normalTexture":{
				"index":1
			},
			"occlusionTexture":{
				"index":2
			},
			"pbrMetallicRoughness":{
				"baseColorTexture":{
					"index":3
				},
				"metallicRoughnessTexture":{
					"index":2
				}
			}
		}
	],
	"meshes":[
		{
			"name":"helmet",
			"primitives":[
				{
					"attributes":{
						"POSITION":0,
						"NORMAL":1,
						"TEXCOORD_0":2,
						"TANGENT":3
					},
					"indices":4,
					"material":0
				}
			]
		}
	],
	"textures":[
		{
			"sampler":0,
			"source":0
		},
		{
			"sampler":0,
			"source":1
		},
		{
			"sampler":0,
			"source":2
		},
		{
			"sampler":0,
			"source":3
		}
	],
	"images":[
		{
			"mimeType":"image/jpeg",
			"name":"emissive",
			"uri":"textures/emissive.jpg"
		},
		{
			"mimeType":"image/jpeg",
			"name":"normal",
			"uri":"textures/normal.jpg"
		},
		{
			"mimeType":"image/png",
			"name":"orm",
			"uri":"textures/orm.png"
		},
		{
			"mimeType":"image/jpeg",
			"name":"albedo",
			"uri":"textures/albedo.jpg"
		}
	],
	"accessors":[
		{
			"bufferView":0,
			"componentType":5126,
			"count":14806,
			"max":[
				0.9424954056739807,
				0.8128451108932495,
				0.900973916053772
			],
			"min":[
				-0.9474585652351379,
				-1.18715500831604,
				-0.9009949564933777
			],
			"type":"VEC3"
		},
		{
			"bufferView":1,
			"componentType":5126,
			"count":14806,
			"type":"VEC3"
		},
		{
			"bufferView":2,
			"componentType":5126,
			"count":14806,
			"type":"VEC2"
		},
		{
			"bufferView":3,
			"componentType":5126,
			"count":14806,
			"type":"VEC4"
		},
		{
			"bufferView":4,
			"componentType":5123,
			"count":46356,
			"type":"SCALAR"
		}
	],
	"bufferViews":[
		{
			"buffer":0,
			"byteLength":177672,
			"byteOffset":0,
			"target":34962
		},
		{
			"buffer":0,
			"byteLength":177672,
			"byteOffset":177672,
			"target":34962
		},
		{
			"buffer":0,
			"byteLength":118448,
			"byteOffset":355344,
			"target":34962
		},
		{
			"buffer":0,
			"byteLength":236896,
			"byteOffset":473792,
			"target":34962
		},
		{
			"buffer":0,
			"byteLength":92712,
			"byteOffset":710688,
			"target":34963
		}
	],
	"samplers":[
		{
			"magFilter":9729,
			"minFilter":9987
		}
	],
	"buffers":[
		{
			"byteLength":803400,
			"uri":"damaged_helmet.bin"
		}
	]
}
