{
	"asset":{
		"generator":"Khronos glTF Blender I/O v4.4.56",
		"version":"2.0"
	},
	"scene":0,
	"scenes":[
		{
			"name":"Scene",
			"nodes":[
				0,
				1,
				2
			]
		}
	],
	"nodes":[
		{
			"mesh":0,
			"name":"00_stem"
		},
		{
			"mesh":1,
			"name":"01_leaves0"
		},
		{
			"mesh":2,
			"name":"02_leaves1"
		}
	],
	"materials":[
		{
			"doubleSided":true,
			"name":"Material.003",
			"pbrMetallicRoughness":{
				"baseColorTexture":{
					"index":0
				},
				"metallicFactor":0,
				"roughnessFactor":0.5
			}
		},
		{
			"alphaMode":"BLEND",
			"doubleSided":true,
			"name":"Material.004",
			"pbrMetallicRoughness":{
				"baseColorTexture":{
					"index":1
				},
				"metallicFactor":0,
				"roughnessFactor":0.5
			}
		}
	],
	"meshes":[
		{
			"name":"BezierCurve.002",
			"primitives":[
				{
					"attributes":{
						"POSITION":0,
						"NORMAL":1,
						"TEXCOORD_0":2,
						"TANGENT":3
					},
					"indices":4,
					"material":0
				}
			]
		},
		{
			"name":"BezierCurve.003",
			"primitives":[
				{
					"attributes":{
						"POSITION":5,
						"NORMAL":6,
						"TEXCOORD_0":7,
						"TANGENT":8
					},
					"indices":9,
					"material":1
				}
			]
		},
		{
			"name":"BezierCurve.004",
			"primitives":[
				{
					"attributes":{
						"POSITION":10,
						"NORMAL":11,
						"TEXCOORD_0":12,
						"TANGENT":13
					},
					"indices":14,
					"material":1
				}
			]
		}
	],
	"textures":[
		{
			"sampler":0,
			"source":0
		},
		{
			"sampler":0,
			"source":1
		}
	],
	"images":[
		{
			"mimeType":"image/jpeg",
			"name":"bark",
			"uri":"textures/bark.jpg"
		},
		{
			"mimeType":"image/png",
			"name":"leaves2",
			"uri":"textures/leaves2.png"
		}
	],
	"accessors":[
		{
			"bufferView":0,
			"componentType":5126,
			"count":311,
			"max":[
				0.4250040054321289,
				6.621478080749512,
				1.2354316711425781
			],
			"min":[
				-0.8334903717041016,
				0,
				-0.6084156036376953
			],
			"type":"VEC3"
		},
		{
			"bufferView":1,
			"componentType":5126,
			"count":311,
			"type":"VEC3"
		},
		{
			"bufferView":2,
			"componentType":5126,
			"count":311,
			"type":"VEC2"
		},
		{
			"bufferView":3,
			"componentType":5126,
			"count":311,
			"type":"VEC4"
		},
		{
			"bufferView":4,
			"componentType":5123,
			"count":651,
			"type":"SCALAR"
		},
		{
			"bufferView":5,
			"componentType":5126,
			"count":261,
			"max":[
				2.940631866455078,
				7.500932693481445,
				2.8451499938964844
			],
			"min":[
				-3.3098506927490234,
				0.8704590797424316,
				-3.4047069549560547
			],
			"type":"VEC3"
		},
		{
			"bufferView":6,
			"componentType":5126,
			"count":261,
			"type":"VEC3"
		},
		{
			"bufferView":7,
			"componentType":5126,
			"count":261,
			"type":"VEC2"
		},
		{
			"bufferView":8,
			"componentType":5126,
			"count":261,
			"type":"VEC4"
		},
		{
			"bufferView":9,
			"componentType":5123,
			"count":537,
			"type":"SCALAR"
		},
		{
			"bufferView":10,
			"componentType":5126,
			"count":369,
			"max":[
				3.2405309677124023,
				7.38088321685791,
				3.801664352416992
			],
			"min":[
				-3.2765841484069824,
				0.31810951232910156,
				-3.514754295349121
			],
			"type":"VEC3"
		},
		{
			"bufferView":11,
			"componentType":5126,
			"count":369,
			"type":"VEC3"
		},
		{
			"bufferView":12,
			"componentType":5126,
			"count":369,
			"type":"VEC2"
		},
		{
			"bufferView":13,
			"componentType":5126,
			"count":369,
			"type":"VEC4"
		},
		{
			"bufferView":14,
			"componentType":5123,
			"count":750,
			"type":"SCALAR"
		}
	],
	"bufferViews":[
		{
			"buffer":0,
			"byteLength":3732,
			"byteOffset":0,
			"target":34962
		},
		{
			"buffer":0,
			"byteLength":3732,
			"byteOffset":3732,
			"target":34962
		},
		{
			"buffer":0,
			"byteLength":2488,
			"byteOffset":7464,
			"target":34962
		},
		{
			"buffer":0,
			"byteLength":4976,
			"byteOffset":9952,
			"target":34962
		},
		{
			"buffer":0,
			"byteLength":1302,
			"byteOffset":14928,
			"target":34963
		},
		{
			"buffer":0,
			"byteLength":3132,
			"byteOffset":16232,
			"target":34962
		},
		{
			"buffer":0,
			"byteLength":3132,
			"byteOffset":19364,
			"target":34962
		},
		{
			"buffer":0,
			"byteLength":2088,
			"byteOffset":22496,
			"target":34962
		},
		{
			"buffer":0,
			"byteLength":4176,
			"byteOffset":24584,
			"target":34962
		},
		{
			"buffer":0,
			"byteLength":1074,
			"byteOffset":28760,
			"target":34963
		},
		{
			"buffer":0,
			"byteLength":4428,
			"byteOffset":29836,
			"target":34962
		},
		{
			"buffer":0,
			"byteLength":4428,
			"byteOffset":34264,
			"target":34962
		},
		{
			"buffer":0,
			"byteLength":2952,
			"byteOffset":38692,
			"target":34962
		},
		{
			"buffer":0,
			"byteLength":5904,
			"byteOffset":41644,
			"target":34962
		},
		{
			"buffer":0,
			"byteLength":1500,
			"byteOffset":47548,
			"target":34963
		}
	],
	"samplers":[
		{
			"magFilter":9729,
			"minFilter":9987
		}
	],
	"buffers":[
		{
			"byteLength":49048,
			"uri":"tree_1_2.bin"
		}
	]
}
