{
	"asset":{
		"generator":"Khronos glTF Blender I/O v4.4.56",
		"version":"2.0"
	},
	"scene":0,
	"scenes":[
		{
			"name":"Scene",
			"nodes":[
				0,
				1
			]
		}
	],
	"nodes":[
		{
			"mesh":0,
			"name":"EdgeThreeBot",
			"translation":[
				0,
				0,
				0
			]
		},
		{
			"mesh":1,
			"name":"EdgeThreeTop",
			"translation":[
				0,
				0,
				0
			]
		}
	],
	"materials":[
		{
			"doubleSided":true,
			"name":"Ground",
			"pbrMetallicRoughness":{
				"baseColorFactor":[
					0.7150564193725586,
					0.737588107585907,
					0.8101340532302856,
					1
				],
				"metallicFactor":0,
				"roughnessFactor":0.5
			}
		},
		{
			"doubleSided":true,
			"name":"Grass",
			"pbrMetallicRoughness":{
				"baseColorFactor":[
					0.5537770390510559,
					0.8008192181587219,
					0.08451356738805771,
					1
				],
				"metallicFactor":0,
				"roughnessFactor":0.5
			}
		}
	],
	"meshes":[
		{
			"name":"Cube.002",
			"primitives":[
				{
					"attributes":{
						"POSITION":0,
						"NORMAL":1,
						"TEXCOORD_0":2,
						"TANGENT":3
					},
					"indices":4,
					"material":0
				}
			]
		},
		{
			"name":"Cube.003",
			"primitives":[
				{
					"attributes":{
						"POSITION":5,
						"NORMAL":6,
						"TEXCOORD_0":7,
						"TANGENT":8
					},
					"indices":9,
					"material":1
				}
			]
		}
	],
	"accessors":[
		{
			"bufferView":0,
			"componentType":5126,
			"count":106,
			"max":[
				0.5,
				0.4000000059604645,
				0.5
			],
			"min":[
				-0.5,
				-0.5,
				-0.500559389591217
			],
			"type":"VEC3"
		},
		{
			"bufferView":1,
			"componentType":5126,
			"count":106,
			"type":"VEC3"
		},
		{
			"bufferView":2,
			"componentType":5126,
			"count":106,
			"type":"VEC2"
		},
		{
			"bufferView":3,
			"componentType":5126,
			"count":106,
			"type":"VEC4"
		},
		{
			"bufferView":4,
			"componentType":5123,
			"count":126,
			"type":"SCALAR"
		},
		{
			"bufferView":5,
			"componentType":5126,
			"count":42,
			"max":[
				0.5,
				0.5,
				0.5
			],
			"min":[
				-0.5,
				0.39999979734420776,
				-0.5
			],
			"type":"VEC3"
		},
		{
			"bufferView":6,
			"componentType":5126,
			"count":42,
			"type":"VEC3"
		},
		{
			"bufferView":7,
			"componentType":5126,
			"count":42,
			"type":"VEC2"
		},
		{
			"bufferView":8,
			"componentType":5126,
			"count":42,
			"type":"VEC4"
		},
		{
			"bufferView":9,
			"componentType":5123,
			"count":54,
			"type":"SCALAR"
		}
	],
	"bufferViews":[
		{
			"buffer":0,
			"byteLength":1272,
			"byteOffset":0,
			"target":34962
		},
		{
			"buffer":0,
			"byteLength":1272,
			"byteOffset":1272,
			"target":34962
		},
		{
			"buffer":0,
			"byteLength":848,
			"byteOffset":2544,
			"target":34962
		},
		{
			"buffer":0,
			"byteLength":1696,
			"byteOffset":3392,
			"target":34962
		},
		{
			"buffer":0,
			"byteLength":252,
			"byteOffset":5088,
			"target":34963
		},
		{
			"buffer":0,
			"byteLength":504,
			"byteOffset":5340,
			"target":34962
		},
		{
			"buffer":0,
			"byteLength":504,
			"byteOffset":5844,
			"target":34962
		},
		{
			"buffer":0,
			"byteLength":336,
			"byteOffset":6348,
			"target":34962
		},
		{
			"buffer":0,
			"byteLength":672,
			"byteOffset":6684,
			"target":34962
		},
		{
			"buffer":0,
			"byteLength":108,
			"byteOffset":7356,
			"target":34963
		}
	],
	"buffers":[
		{
			"byteLength":7464,
			"uri":"edge_three.bin"
		}
	]
}
