{
	"asset":{
		"generator":"Khronos glTF Blender I/O v4.4.56",
		"version":"2.0"
	},
	"scene":0,
	"scenes":[
		{
			"name":"Scene",
			"nodes":[
				0,
				1,
				2,
				3,
				4,
				5
			]
		}
	],
	"nodes":[
		{
			"mesh":0,
			"name":"pawn",
			"scale":[
				5,
				5,
				5
			]
		},
		{
			"mesh":1,
			"name":"rook",
			"scale":[
				5,
				5,
				5
			]
		},
		{
			"mesh":2,
			"name":"knight",
			"scale":[
				5,
				5,
				5
			]
		},
		{
			"mesh":3,
			"name":"bishop",
			"scale":[
				5,
				5,
				5
			]
		},
		{
			"mesh":4,
			"name":"queen",
			"scale":[
				5,
				5,
				5
			]
		},
		{
			"mesh":5,
			"name":"king",
			"scale":[
				5,
				5,
				5
			]
		}
	],
	"materials":[
		{
			"doubleSided":true,
			"name":"chess_set_pieces_black",
			"normalTexture":{
				"index":0
			},
			"pbrMetallicRoughness":{
				"baseColorTexture":{
					"index":1
				},
				"metallicFactor":0,
				"metallicRoughnessTexture":{
					"index":2
				}
			}
		}
	],
	"meshes":[
		{
			"name":"pawn",
			"primitives":[
				{
					"attributes":{
						"POSITION":0,
						"NORMAL":1,
						"TEXCOORD_0":2,
						"TANGENT":3
					},
					"indices":4,
					"material":0
				}
			]
		},
		{
			"name":"rook",
			"primitives":[
				{
					"attributes":{
						"POSITION":5,
						"NORMAL":6,
						"TEXCOORD_0":7,
						"TANGENT":8
					},
					"indices":9,
					"material":0
				}
			]
		},
		{
			"name":"knight",
			"primitives":[
				{
					"attributes":{
						"POSITION":10,
						"NORMAL":11,
						"TEXCOORD_0":12,
						"TANGENT":13
					},
					"indices":14,
					"material":0
				}
			]
		},
		{
			"name":"bishop",
			"primitives":[
				{
					"attributes":{
						"POSITION":15,
						"NORMAL":16,
						"TEXCOORD_0":17,
						"TANGENT":18
					},
					"indices":19,
					"material":0
				}
			]
		},
		{
			"name":"queen",
			"primitives":[
				{
					"attributes":{
						"POSITION":20,
						"NORMAL":21,
						"TEXCOORD_0":22,
						"TANGENT":23
					},
					"indices":24,
					"material":0
				}
			]
		},
		{
			"name":"king",
			"primitives":[
				{
					"attributes":{
						"POSITION":25,
						"NORMAL":26,
						"TEXCOORD_0":27,
						"TEXCOORD_1":28,
						"TANGENT":29
					},
					"indices":30,
					"material":0
				}
			]
		}
	],
	"textures":[
		{
			"sampler":0,
			"source":0
		},
		{
			"sampler":0,
			"source":1
		},
		{
			"sampler":0,
			"source":2
		}
	],
	"images":[
		{
			"mimeType":"image/jpeg",
			"name":"chess_set_pieces_black_nor_gl_4k",
			"uri":"chess_set_pieces_black_nor_gl_4k.jpg"
		},
		{
			"mimeType":"image/jpeg",
			"name":"chess_set_pieces_black_diff_4k",
			"uri":"chess_set_pieces_black_diff_4k.jpg"
		},
		{
			"mimeType":"image/jpeg",
			"name":"chess_set_pieces_black_arm_4k",
			"uri":"chess_set_pieces_black_arm_4k.jpg"
		}
	],
	"accessors":[
		{
			"bufferView":0,
			"componentType":5126,
			"count":1185,
			"max":[
				0.014420497231185436,
				0.053703341633081436,
				0.014433925040066242
			],
			"min":[
				-0.014483553357422352,
				-7.083472031155225e-09,
				-0.01444040797650814
			],
			"type":"VEC3"
		},
		{
			"bufferView":1,
			"componentType":5126,
			"count":1185,
			"type":"VEC3"
		},
		{
			"bufferView":2,
			"componentType":5126,
			"count":1185,
			"type":"VEC2"
		},
		{
			"bufferView":3,
			"componentType":5126,
			"count":1185,
			"type":"VEC4"
		},
		{
			"bufferView":4,
			"componentType":5123,
			"count":4920,
			"type":"SCALAR"
		},
		{
			"bufferView":5,
			"componentType":5126,
			"count":2112,
			"max":[
				0.06832913309335709,
				0.060513511300086975,
				0.018137037754058838
			],
			"min":[
				0.0315738320350647,
				-5.737451647291891e-05,
				-0.01856144331395626
			],
			"type":"VEC3"
		},
		{
			"bufferView":6,
			"componentType":5126,
			"count":2112,
			"type":"VEC3"
		},
		{
			"bufferView":7,
			"componentType":5126,
			"count":2112,
			"type":"VEC2"
		},
		{
			"bufferView":8,
			"componentType":5126,
			"count":2112,
			"type":"VEC4"
		},
		{
			"bufferView":9,
			"componentType":5123,
			"count":8928,
			"type":"SCALAR"
		},
		{
			"bufferView":10,
			"componentType":5126,
			"count":2027,
			"max":[
				0.12099723517894745,
				0.07499857991933823,
				0.019403476268053055
			],
			"min":[
				0.07561508566141129,
				-3.755149080575393e-09,
				-0.019391503185033798
			],
			"type":"VEC3"
		},
		{
			"bufferView":11,
			"componentType":5126,
			"count":2027,
			"type":"VEC3"
		},
		{
			"bufferView":12,
			"componentType":5126,
			"count":2027,
			"type":"VEC2"
		},
		{
			"bufferView":13,
			"componentType":5126,
			"count":2027,
			"type":"VEC4"
		},
		{
			"bufferView":14,
			"componentType":5123,
			"count":7986,
			"type":"SCALAR"
		},
		{
			"bufferView":15,
			"componentType":5126,
			"count":2125,
			"max":[
				0.16612258553504944,
				0.08581218123435974,
				0.016050374135375023
			],
			"min":[
				0.13393141329288483,
				0,
				-0.0161648690700531
			],
			"type":"VEC3"
		},
		{
			"bufferView":16,
			"componentType":5126,
			"count":2125,
			"type":"VEC3"
		},
		{
			"bufferView":17,
			"componentType":5126,
			"count":2125,
			"type":"VEC2"
		},
		{
			"bufferView":18,
			"componentType":5126,
			"count":2125,
			"type":"VEC4"
		},
		{
			"bufferView":19,
			"componentType":5123,
			"count":8772,
			"type":"SCALAR"
		},
		{
			"bufferView":20,
			"componentType":5126,
			"count":2169,
			"max":[
				0.22028528153896332,
				0.09045390784740448,
				0.020381664857268333
			],
			"min":[
				0.1797047257423401,
				-0.00026654338580556214,
				-0.020382003858685493
			],
			"type":"VEC3"
		},
		{
			"bufferView":21,
			"componentType":5126,
			"count":2169,
			"type":"VEC3"
		},
		{
			"bufferView":22,
			"componentType":5126,
			"count":2169,
			"type":"VEC2"
		},
		{
			"bufferView":23,
			"componentType":5126,
			"count":2169,
			"type":"VEC4"
		},
		{
			"bufferView":24,
			"componentType":5123,
			"count":8820,
			"type":"SCALAR"
		},
		{
			"bufferView":25,
			"componentType":5126,
			"count":3260,
			"max":[
				0.27077487111091614,
				0.09500318765640259,
				0.02085612155497074
			],
			"min":[
				0.22924770414829254,
				0,
				-0.02086399495601654
			],
			"type":"VEC3"
		},
		{
			"bufferView":26,
			"componentType":5126,
			"count":3260,
			"type":"VEC3"
		},
		{
			"bufferView":27,
			"componentType":5126,
			"count":3260,
			"type":"VEC2"
		},
		{
			"bufferView":28,
			"componentType":5126,
			"count":3260,
			"type":"VEC2"
		},
		{
			"bufferView":29,
			"componentType":5126,
			"count":3260,
			"type":"VEC4"
		},
		{
			"bufferView":30,
			"componentType":5123,
			"count":12516,
			"type":"SCALAR"
		}
	],
	"bufferViews":[
		{
			"buffer":0,
			"byteLength":14220,
			"byteOffset":0,
			"target":34962
		},
		{
			"buffer":0,
			"byteLength":14220,
			"byteOffset":14220,
			"target":34962
		},
		{
			"buffer":0,
			"byteLength":9480,
			"byteOffset":28440,
			"target":34962
		},
		{
			"buffer":0,
			"byteLength":18960,
			"byteOffset":37920,
			"target":34962
		},
		{
			"buffer":0,
			"byteLength":9840,
			"byteOffset":56880,
			"target":34963
		},
		{
			"buffer":0,
			"byteLength":25344,
			"byteOffset":66720,
			"target":34962
		},
		{
			"buffer":0,
			"byteLength":25344,
			"byteOffset":92064,
			"target":34962
		},
		{
			"buffer":0,
			"byteLength":16896,
			"byteOffset":117408,
			"target":34962
		},
		{
			"buffer":0,
			"byteLength":33792,
			"byteOffset":134304,
			"target":34962
		},
		{
			"buffer":0,
			"byteLength":17856,
			"byteOffset":168096,
			"target":34963
		},
		{
			"buffer":0,
			"byteLength":24324,
			"byteOffset":185952,
			"target":34962
		},
		{
			"buffer":0,
			"byteLength":24324,
			"byteOffset":210276,
			"target":34962
		},
		{
			"buffer":0,
			"byteLength":16216,
			"byteOffset":234600,
			"target":34962
		},
		{
			"buffer":0,
			"byteLength":32432,
			"byteOffset":250816,
			"target":34962
		},
		{
			"buffer":0,
			"byteLength":15972,
			"byteOffset":283248,
			"target":34963
		},
		{
			"buffer":0,
			"byteLength":25500,
			"byteOffset":299220,
			"target":34962
		},
		{
			"buffer":0,
			"byteLength":25500,
			"byteOffset":324720,
			"target":34962
		},
		{
			"buffer":0,
			"byteLength":17000,
			"byteOffset":350220,
			"target":34962
		},
		{
			"buffer":0,
			"byteLength":34000,
			"byteOffset":367220,
			"target":34962
		},
		{
			"buffer":0,
			"byteLength":17544,
			"byteOffset":401220,
			"target":34963
		},
		{
			"buffer":0,
			"byteLength":26028,
			"byteOffset":418764,
			"target":34962
		},
		{
			"buffer":0,
			"byteLength":26028,
			"byteOffset":444792,
			"target":34962
		},
		{
			"buffer":0,
			"byteLength":17352,
			"byteOffset":470820,
			"target":34962
		},
		{
			"buffer":0,
			"byteLength":34704,
			"byteOffset":488172,
			"target":34962
		},
		{
			"buffer":0,
			"byteLength":17640,
			"byteOffset":522876,
			"target":34963
		},
		{
			"buffer":0,
			"byteLength":39120,
			"byteOffset":540516,
			"target":34962
		},
		{
			"buffer":0,
			"byteLength":39120,
			"byteOffset":579636,
			"target":34962
		},
		{
			"buffer":0,
			"byteLength":26080,
			"byteOffset":618756,
			"target":34962
		},
		{
			"buffer":0,
			"byteLength":26080,
			"byteOffset":644836,
			"target":34962
		},
		{
			"buffer":0,
			"byteLength":52160,
			"byteOffset":670916,
			"target":34962
		},
		{
			"buffer":0,
			"byteLength":25032,
			"byteOffset":723076,
			"target":34963
		}
	],
	"samplers":[
		{
			"magFilter":9729,
			"minFilter":9987
		}
	],
	"buffers":[
		{
			"byteLength":748108,
			"uri":"pieces.bin"
		}
	]
}
