{
	"asset":{
		"generator":"Khronos glTF Blender I/O v4.4.56",
		"version":"2.0"
	},
	"scene":0,
	"scenes":[
		{
			"name":"Scene",
			"nodes":[
				0,
				1
			]
		}
	],
	"nodes":[
		{
			"mesh":0,
			"name":"Object_18",
			"scale":[
				1.1630756855010986,
				1.1630759239196777,
				1.1630759239196777
			],
			"translation":[
				11.1998929977417,
				0,
				18.468666076660156
			]
		},
		{
			"mesh":1,
			"name":"Object_20",
			"scale":[
				1.1630756855010986,
				1.1630759239196777,
				1.1630759239196777
			],
			"translation":[
				11.1998929977417,
				0,
				18.468666076660156
			]
		}
	],
	"materials":[
		{
			"doubleSided":true,
			"name":"trunk-01-1",
			"pbrMetallicRoughness":{
				"baseColorTexture":{
					"index":0
				},
				"metallicFactor":0,
				"roughnessFactor":0.3431819975376129
			}
		},
		{
			"alphaMode":"MASK",
			"doubleSided":true,
			"name":"branch-01-1",
			"pbrMetallicRoughness":{
				"baseColorTexture":{
					"index":1
				},
				"metallicFactor":0,
				"roughnessFactor":0.4954545497894287
			}
		}
	],
	"meshes":[
		{
			"name":"Object_12",
			"primitives":[
				{
					"attributes":{
						"POSITION":0,
						"NORMAL":1,
						"TEXCOORD_0":2,
						"TANGENT":3
					},
					"indices":4,
					"material":0
				}
			]
		},
		{
			"name":"Object_14",
			"primitives":[
				{
					"attributes":{
						"POSITION":5,
						"NORMAL":6,
						"TEXCOORD_0":7,
						"TANGENT":8
					},
					"indices":9,
					"material":1
				}
			]
		}
	],
	"textures":[
		{
			"sampler":0,
			"source":0
		},
		{
			"sampler":0,
			"source":1
		}
	],
	"images":[
		{
			"mimeType":"image/jpeg",
			"name":"trunk_albedo",
			"uri":"textures/trunk_albedo.jpg"
		},
		{
			"mimeType":"image/png",
			"name":"branch_albedo",
			"uri":"textures/branch_albedo.png"
		}
	],
	"accessors":[
		{
			"bufferView":0,
			"componentType":5126,
			"count":180,
			"max":[
				-8.966341972351074,
				6.617419242858887,
				-14.908829689025879
			],
			"min":[
				-9.78154468536377,
				-0.0067291259765625,
				-16.0322265625
			],
			"type":"VEC3"
		},
		{
			"bufferView":1,
			"componentType":5126,
			"count":180,
			"type":"VEC3"
		},
		{
			"bufferView":2,
			"componentType":5126,
			"count":180,
			"type":"VEC2"
		},
		{
			"bufferView":3,
			"componentType":5126,
			"count":180,
			"type":"VEC4"
		},
		{
			"bufferView":4,
			"componentType":5123,
			"count":396,
			"type":"SCALAR"
		},
		{
			"bufferView":5,
			"componentType":5126,
			"count":114,
			"max":[
				-6.17281436920166,
				7.503784656524658,
				-13.726181983947754
			],
			"min":[
				-13.14791488647461,
				1.2224225997924805,
				-19.104944229125977
			],
			"type":"VEC3"
		},
		{
			"bufferView":6,
			"componentType":5126,
			"count":114,
			"type":"VEC3"
		},
		{
			"bufferView":7,
			"componentType":5126,
			"count":114,
			"type":"VEC2"
		},
		{
			"bufferView":8,
			"componentType":5126,
			"count":114,
			"type":"VEC4"
		},
		{
			"bufferView":9,
			"componentType":5123,
			"count":288,
			"type":"SCALAR"
		}
	],
	"bufferViews":[
		{
			"buffer":0,
			"byteLength":2160,
			"byteOffset":0,
			"target":34962
		},
		{
			"buffer":0,
			"byteLength":2160,
			"byteOffset":2160,
			"target":34962
		},
		{
			"buffer":0,
			"byteLength":1440,
			"byteOffset":4320,
			"target":34962
		},
		{
			"buffer":0,
			"byteLength":2880,
			"byteOffset":5760,
			"target":34962
		},
		{
			"buffer":0,
			"byteLength":792,
			"byteOffset":8640,
			"target":34963
		},
		{
			"buffer":0,
			"byteLength":1368,
			"byteOffset":9432,
			"target":34962
		},
		{
			"buffer":0,
			"byteLength":1368,
			"byteOffset":10800,
			"target":34962
		},
		{
			"buffer":0,
			"byteLength":912,
			"byteOffset":12168,
			"target":34962
		},
		{
			"buffer":0,
			"byteLength":1824,
			"byteOffset":13080,
			"target":34962
		},
		{
			"buffer":0,
			"byteLength":576,
			"byteOffset":14904,
			"target":34963
		}
	],
	"samplers":[
		{
			"magFilter":9729,
			"minFilter":9987
		}
	],
	"buffers":[
		{
			"byteLength":15480,
			"uri":"tree_1.bin"
		}
	]
}
