{
	"asset":{
		"generator":"Khronos glTF Blender I/O v4.4.56",
		"version":"2.0"
	},
	"scene":0,
	"scenes":[
		{
			"name":"Scene",
			"nodes":[
				0,
				1
			]
		}
	],
	"nodes":[
		{
			"mesh":0,
			"name":"Object_11",
			"scale":[
				1.1630756855010986,
				1.1630759239196777,
				1.1630759239196777
			]
		},
		{
			"mesh":1,
			"name":"Object_12",
			"scale":[
				1.1630756855010986,
				1.1630759239196777,
				1.1630759239196777
			]
		}
	],
	"materials":[
		{
			"doubleSided":true,
			"name":"trunk-01-1.002",
			"pbrMetallicRoughness":{
				"baseColorTexture":{
					"index":0
				},
				"metallicFactor":0,
				"roughnessFactor":0.3431819975376129
			}
		},
		{
			"alphaMode":"BLEND",
			"doubleSided":true,
			"name":"branch-02-1.002",
			"pbrMetallicRoughness":{
				"baseColorTexture":{
					"index":1
				},
				"metallicFactor":0,
				"roughnessFactor":0.5
			}
		}
	],
	"meshes":[
		{
			"name":"Object_6.001",
			"primitives":[
				{
					"attributes":{
						"POSITION":0,
						"NORMAL":1,
						"TEXCOORD_0":2,
						"TANGENT":3
					},
					"indices":4,
					"material":0
				}
			]
		},
		{
			"name":"Object_7.001",
			"primitives":[
				{
					"attributes":{
						"POSITION":5,
						"NORMAL":6,
						"TEXCOORD_0":7,
						"TANGENT":8
					},
					"indices":9,
					"material":1
				}
			]
		}
	],
	"textures":[
		{
			"sampler":0,
			"source":0
		},
		{
			"sampler":0,
			"source":1
		}
	],
	"images":[
		{
			"mimeType":"image/jpeg",
			"name":"trunk-01-1_baseColor",
			"uri":"../textures/trunk_albedo.jpg"
		},
		{
			"mimeType":"image/png",
			"name":"branch-02-1_baseColor",
			"uri":"../textures/branch_albedo.png"
		}
	],
	"accessors":[
		{
			"bufferView":0,
			"componentType":5126,
			"count":296,
			"max":[
				0.4250040054321289,
				6.621478080749512,
				1.2354316711425781
			],
			"min":[
				-0.8334903717041016,
				0,
				-0.6084156036376953
			],
			"type":"VEC3"
		},
		{
			"bufferView":1,
			"componentType":5126,
			"count":296,
			"type":"VEC3"
		},
		{
			"bufferView":2,
			"componentType":5126,
			"count":296,
			"type":"VEC2"
		},
		{
			"bufferView":3,
			"componentType":5126,
			"count":296,
			"type":"VEC4"
		},
		{
			"bufferView":4,
			"componentType":5123,
			"count":666,
			"type":"SCALAR"
		},
		{
			"bufferView":5,
			"componentType":5126,
			"count":534,
			"max":[
				3.2405309677124023,
				7.500932693481445,
				3.801663398742676
			],
			"min":[
				-3.309849739074707,
				0.31810951232910156,
				-3.5147552490234375
			],
			"type":"VEC3"
		},
		{
			"bufferView":6,
			"componentType":5126,
			"count":534,
			"type":"VEC3"
		},
		{
			"bufferView":7,
			"componentType":5126,
			"count":534,
			"type":"VEC2"
		},
		{
			"bufferView":8,
			"componentType":5126,
			"count":534,
			"type":"VEC4"
		},
		{
			"bufferView":9,
			"componentType":5123,
			"count":1272,
			"type":"SCALAR"
		}
	],
	"bufferViews":[
		{
			"buffer":0,
			"byteLength":3552,
			"byteOffset":0,
			"target":34962
		},
		{
			"buffer":0,
			"byteLength":3552,
			"byteOffset":3552,
			"target":34962
		},
		{
			"buffer":0,
			"byteLength":2368,
			"byteOffset":7104,
			"target":34962
		},
		{
			"buffer":0,
			"byteLength":4736,
			"byteOffset":9472,
			"target":34962
		},
		{
			"buffer":0,
			"byteLength":1332,
			"byteOffset":14208,
			"target":34963
		},
		{
			"buffer":0,
			"byteLength":6408,
			"byteOffset":15540,
			"target":34962
		},
		{
			"buffer":0,
			"byteLength":6408,
			"byteOffset":21948,
			"target":34962
		},
		{
			"buffer":0,
			"byteLength":4272,
			"byteOffset":28356,
			"target":34962
		},
		{
			"buffer":0,
			"byteLength":8544,
			"byteOffset":32628,
			"target":34962
		},
		{
			"buffer":0,
			"byteLength":2544,
			"byteOffset":41172,
			"target":34963
		}
	],
	"samplers":[
		{
			"magFilter":9729,
			"minFilter":9987
		}
	],
	"buffers":[
		{
			"byteLength":43716,
			"uri":"tree_1.bin"
		}
	]
}
