{
	"asset":{
		"generator":"Khronos glTF Blender I/O v5.1.19",
		"version":"2.0"
	},
	"scene":0,
	"scenes":[
		{
			"name":"Scene",
			"nodes":[
				1
			]
		}
	],
	"nodes":[
		{
			"mesh":0,
			"name":"leafes"
		},
		{
			"children":[
				0
			],
			"mesh":1,
			"name":"bark",
			"rotation":[
				0.7071068286895752,
				0,
				0,
				0.7071068286895752
			],
			"scale":[
				0.009999999776482582,
				0.009999999776482582,
				0.009999999776482582
			]
		}
	],
	"materials":[
		{
			"alphaMode":"BLEND",
			"doubleSided":true,
			"name":"leafes",
			"normalTexture":{
				"index":0
			},
			"pbrMetallicRoughness":{
				"baseColorTexture":{
					"index":1
				},
				"metallicFactor":0,
				"metallicRoughnessTexture":{
					"index":2
				}
			}
		},
		{
			"doubleSided":true,
			"name":"branch",
			"normalTexture":{
				"index":3
			},
			"pbrMetallicRoughness":{
				"baseColorTexture":{
					"index":4
				},
				"metallicFactor":0,
				"metallicRoughnessTexture":{
					"index":5
				}
			}
		}
	],
	"meshes":[
		{
			"name":"branch05_1",
			"primitives":[
				{
					"attributes":{
						"POSITION":0,
						"NORMAL":1,
						"TEXCOORD_0":2,
						"TANGENT":3,
						"COLOR_0":4,
						"COLOR_1":5
					},
					"indices":6,
					"material":0
				}
			]
		},
		{
			"name":"bark10_0",
			"primitives":[
				{
					"attributes":{
						"POSITION":7,
						"NORMAL":8,
						"TEXCOORD_0":9,
						"TANGENT":10,
						"COLOR_0":11,
						"COLOR_1":12
					},
					"indices":13,
					"material":1
				}
			]
		}
	],
	"textures":[
		{
			"sampler":0,
			"source":0
		},
		{
			"sampler":0,
			"source":1
		},
		{
			"sampler":0,
			"source":2
		},
		{
			"sampler":0,
			"source":3
		},
		{
			"sampler":0,
			"source":4
		},
		{
			"sampler":0,
			"source":5
		}
	],
	"images":[
		{
			"mimeType":"image/png",
			"name":"branch05_normal",
			"uri":"textures/leaves/normal.png"
		},
		{
			"mimeType":"image/png",
			"name":"branch05",
			"uri":"textures/leaves/albedo.png"
		},
		{
			"mimeType":"image/png",
			"name":"branch05_roughness",
			"uri":"textures/leaves/roughness.png"
		},
		{
			"mimeType":"image/png",
			"name":"bark10_normal",
			"uri":"textures/bark/normal.png"
		},
		{
			"mimeType":"image/png",
			"name":"bark10",
			"uri":"textures/bark/albedo.png"
		},
		{
			"mimeType":"image/png",
			"name":"bark10_roughness",
			"uri":"textures/bark/roughness.png"
		}
	],
	"accessors":[
		{
			"bufferView":0,
			"componentType":5126,
			"count":512,
			"max":[
				120.33931732177734,
				112.35537719726562,
				-97.85973358154297
			],
			"min":[
				-120.5012435913086,
				-117.29605865478516,
				-367.84295654296875
			],
			"type":"VEC3"
		},
		{
			"bufferView":1,
			"componentType":5126,
			"count":512,
			"type":"VEC3"
		},
		{
			"bufferView":2,
			"componentType":5126,
			"count":512,
			"type":"VEC2"
		},
		{
			"bufferView":3,
			"componentType":5126,
			"count":512,
			"type":"VEC4"
		},
		{
			"bufferView":4,
			"componentType":5121,
			"count":512,
			"normalized":true,
			"type":"VEC4"
		},
		{
			"bufferView":5,
			"componentType":5123,
			"count":512,
			"normalized":true,
			"type":"VEC4"
		},
		{
			"bufferView":6,
			"componentType":5123,
			"count":768,
			"type":"SCALAR"
		},
		{
			"bufferView":7,
			"componentType":5126,
			"count":3931,
			"max":[
				99.24122619628906,
				92.92974853515625,
				0.009259999729692936
			],
			"min":[
				-96.09818267822266,
				-92.90767669677734,
				-340.7867126464844
			],
			"type":"VEC3"
		},
		{
			"bufferView":8,
			"componentType":5126,
			"count":3931,
			"type":"VEC3"
		},
		{
			"bufferView":9,
			"componentType":5126,
			"count":3931,
			"type":"VEC2"
		},
		{
			"bufferView":10,
			"componentType":5126,
			"count":3931,
			"type":"VEC4"
		},
		{
			"bufferView":11,
			"componentType":5121,
			"count":3931,
			"normalized":true,
			"type":"VEC4"
		},
		{
			"bufferView":12,
			"componentType":5123,
			"count":3931,
			"normalized":true,
			"type":"VEC4"
		},
		{
			"bufferView":13,
			"componentType":5123,
			"count":10851,
			"type":"SCALAR"
		}
	],
	"bufferViews":[
		{
			"buffer":0,
			"byteLength":6144,
			"byteOffset":0,
			"target":34962
		},
		{
			"buffer":0,
			"byteLength":6144,
			"byteOffset":6144,
			"target":34962
		},
		{
			"buffer":0,
			"byteLength":4096,
			"byteOffset":12288,
			"target":34962
		},
		{
			"buffer":0,
			"byteLength":8192,
			"byteOffset":16384,
			"target":34962
		},
		{
			"buffer":0,
			"byteLength":2048,
			"byteOffset":24576,
			"target":34962
		},
		{
			"buffer":0,
			"byteLength":4096,
			"byteOffset":26624,
			"target":34962
		},
		{
			"buffer":0,
			"byteLength":1536,
			"byteOffset":30720,
			"target":34963
		},
		{
			"buffer":0,
			"byteLength":47172,
			"byteOffset":32256,
			"target":34962
		},
		{
			"buffer":0,
			"byteLength":47172,
			"byteOffset":79428,
			"target":34962
		},
		{
			"buffer":0,
			"byteLength":31448,
			"byteOffset":126600,
			"target":34962
		},
		{
			"buffer":0,
			"byteLength":62896,
			"byteOffset":158048,
			"target":34962
		},
		{
			"buffer":0,
			"byteLength":15724,
			"byteOffset":220944,
			"target":34962
		},
		{
			"buffer":0,
			"byteLength":31448,
			"byteOffset":236668,
			"target":34962
		},
		{
			"buffer":0,
			"byteLength":21702,
			"byteOffset":268116,
			"target":34963
		}
	],
	"samplers":[
		{
			"magFilter":9729,
			"minFilter":9987
		}
	],
	"buffers":[
		{
			"byteLength":289820,
			"uri":"tree.bin"
		}
	]
}
