{
	"asset":{
		"generator":"Khronos glTF Blender I/O v4.4.56",
		"version":"2.0"
	},
	"scene":0,
	"scenes":[
		{
			"name":"Scene",
			"nodes":[
				0,
				1
			]
		}
	],
	"nodes":[
		{
			"mesh":0,
			"name":"Object_74",
			"scale":[
				1.1630756855010986,
				1.1630759239196777,
				1.1630759239196777
			]
		},
		{
			"mesh":1,
			"name":"Object_75",
			"scale":[
				1.1630756855010986,
				1.1630759239196777,
				1.1630759239196777
			]
		}
	],
	"materials":[
		{
			"doubleSided":true,
			"name":"trunk-01.002",
			"pbrMetallicRoughness":{
				"baseColorTexture":{
					"index":0
				},
				"metallicFactor":0,
				"roughnessFactor":0.3431819975376129
			}
		},
		{
			"alphaMode":"BLEND",
			"doubleSided":true,
			"name":"branch-02-1",
			"pbrMetallicRoughness":{
				"baseColorTexture":{
					"index":1
				},
				"metallicFactor":0,
				"roughnessFactor":0.5
			}
		}
	],
	"meshes":[
		{
			"name":"Object_60.001",
			"primitives":[
				{
					"attributes":{
						"POSITION":0,
						"NORMAL":1,
						"TEXCOORD_0":2,
						"TANGENT":3
					},
					"indices":4,
					"material":0
				}
			]
		},
		{
			"name":"Object_61.001",
			"primitives":[
				{
					"attributes":{
						"POSITION":5,
						"NORMAL":6,
						"TEXCOORD_0":7,
						"TANGENT":8
					},
					"indices":9,
					"material":1
				}
			]
		}
	],
	"textures":[
		{
			"sampler":0,
			"source":0
		},
		{
			"sampler":0,
			"source":1
		}
	],
	"images":[
		{
			"mimeType":"image/jpeg",
			"name":"trunk-01-1_baseColor",
			"uri":"textures/trunk_albedo.jpg"
		},
		{
			"mimeType":"image/png",
			"name":"branch-02-1_baseColor",
			"uri":"textures/branch_albedo.png"
		}
	],
	"accessors":[
		{
			"bufferView":0,
			"componentType":5126,
			"count":182,
			"max":[
				0.18226051330566406,
				6.4977641105651855,
				0.520237922668457
			],
			"min":[
				-0.5529632568359375,
				-0.006605625152587891,
				-0.8766412734985352
			],
			"type":"VEC3"
		},
		{
			"bufferView":1,
			"componentType":5126,
			"count":182,
			"type":"VEC3"
		},
		{
			"bufferView":2,
			"componentType":5126,
			"count":182,
			"type":"VEC2"
		},
		{
			"bufferView":3,
			"componentType":5126,
			"count":182,
			"type":"VEC4"
		},
		{
			"bufferView":4,
			"componentType":5123,
			"count":396,
			"type":"SCALAR"
		},
		{
			"bufferView":5,
			"componentType":5126,
			"count":356,
			"max":[
				3.287271499633789,
				7.24460506439209,
				2.5197229385375977
			],
			"min":[
				-3.3786144256591797,
				-0.36211681365966797,
				-3.1634092330932617
			],
			"type":"VEC3"
		},
		{
			"bufferView":6,
			"componentType":5126,
			"count":356,
			"type":"VEC3"
		},
		{
			"bufferView":7,
			"componentType":5126,
			"count":356,
			"type":"VEC2"
		},
		{
			"bufferView":8,
			"componentType":5126,
			"count":356,
			"type":"VEC4"
		},
		{
			"bufferView":9,
			"componentType":5123,
			"count":840,
			"type":"SCALAR"
		}
	],
	"bufferViews":[
		{
			"buffer":0,
			"byteLength":2184,
			"byteOffset":0,
			"target":34962
		},
		{
			"buffer":0,
			"byteLength":2184,
			"byteOffset":2184,
			"target":34962
		},
		{
			"buffer":0,
			"byteLength":1456,
			"byteOffset":4368,
			"target":34962
		},
		{
			"buffer":0,
			"byteLength":2912,
			"byteOffset":5824,
			"target":34962
		},
		{
			"buffer":0,
			"byteLength":792,
			"byteOffset":8736,
			"target":34963
		},
		{
			"buffer":0,
			"byteLength":4272,
			"byteOffset":9528,
			"target":34962
		},
		{
			"buffer":0,
			"byteLength":4272,
			"byteOffset":13800,
			"target":34962
		},
		{
			"buffer":0,
			"byteLength":2848,
			"byteOffset":18072,
			"target":34962
		},
		{
			"buffer":0,
			"byteLength":5696,
			"byteOffset":20920,
			"target":34962
		},
		{
			"buffer":0,
			"byteLength":1680,
			"byteOffset":26616,
			"target":34963
		}
	],
	"samplers":[
		{
			"magFilter":9729,
			"minFilter":9987
		}
	],
	"buffers":[
		{
			"byteLength":28296,
			"uri":"tree_2.bin"
		}
	]
}
