{
	"asset":{
		"generator":"Khronos glTF Blender I/O v4.4.56",
		"version":"2.0"
	},
	"extensionsUsed":[
		"KHR_materials_specular",
		"KHR_materials_ior"
	],
	"scene":0,
	"scenes":[
		{
			"name":"Scene",
			"nodes":[
				0,
				1
			]
		}
	],
	"nodes":[
		{
			"mesh":0,
			"name":"Object_4",
			"rotation":[
				0,
				-1,
				0,
				1.4163846715969995e-16
			],
			"translation":[
				9.073592185974121,
				0,
				0
			]
		},
		{
			"mesh":1,
			"name":"Object_5",
			"rotation":[
				0,
				-1,
				0,
				1.4163846715969995e-16
			],
			"translation":[
				9.073592185974121,
				0,
				0
			]
		}
	],
	"materials":[
		{
			"doubleSided":true,
			"extensions":{
				"KHR_materials_specular":{
					"specularColorFactor":[
						0.125,
						0.125,
						0.125
					]
				},
				"KHR_materials_ior":{
					"ior":1000
				}
			},
			"name":"BarkMat",
			"normalTexture":{
				"index":0
			},
			"pbrMetallicRoughness":{
				"baseColorTexture":{
					"index":1
				},
				"metallicFactor":0,
				"roughnessFactor":0.8799999952316284
			}
		},
		{
			"alphaMode":"BLEND",
			"doubleSided":true,
			"extensions":{
				"KHR_materials_specular":{
					"specularColorFactor":[
						0.02500000037252903,
						0.02500000037252903,
						0.02500000037252903
					]
				},
				"KHR_materials_ior":{
					"ior":1000
				}
			},
			"name":"BranchMat",
			"normalTexture":{
				"index":2
			},
			"pbrMetallicRoughness":{
				"baseColorTexture":{
					"index":3
				},
				"metallicFactor":0,
				"roughnessFactor":0.675000011920929
			}
		}
	],
	"meshes":[
		{
			"name":"Object_0",
			"primitives":[
				{
					"attributes":{
						"POSITION":0,
						"NORMAL":1,
						"TEXCOORD_0":2,
						"TEXCOORD_1":3,
						"TANGENT":4
					},
					"indices":5,
					"material":0
				}
			]
		},
		{
			"name":"Object_1",
			"primitives":[
				{
					"attributes":{
						"POSITION":6,
						"NORMAL":7,
						"TEXCOORD_0":8,
						"TEXCOORD_1":9,
						"TANGENT":10
					},
					"indices":11,
					"material":1
				}
			]
		}
	],
	"textures":[
		{
			"sampler":0,
			"source":0
		},
		{
			"sampler":0,
			"source":1
		},
		{
			"sampler":0,
			"source":2
		},
		{
			"sampler":1,
			"source":3
		}
	],
	"images":[
		{
			"mimeType":"image/png",
			"name":"BarkMat_normal",
			"uri":"BarkMat_normal.png"
		},
		{
			"mimeType":"image/png",
			"name":"BarkMat_diffuse",
			"uri":"BarkMat_diffuse.png"
		},
		{
			"mimeType":"image/png",
			"name":"BranchMat_normal",
			"uri":"BranchMat_normal.png"
		},
		{
			"mimeType":"image/png",
			"name":"BranchMat_diffuse",
			"uri":"BranchMat_diffuse.png"
		}
	],
	"accessors":[
		{
			"bufferView":0,
			"componentType":5126,
			"count":5820,
			"max":[
				2.615044593811035,
				15.109331130981445,
				2.6300220489501953
			],
			"min":[
				-2.551105260848999,
				-1.1641532182693481e-10,
				-2.4573400020599365
			],
			"type":"VEC3"
		},
		{
			"bufferView":1,
			"componentType":5126,
			"count":5820,
			"type":"VEC3"
		},
		{
			"bufferView":2,
			"componentType":5126,
			"count":5820,
			"type":"VEC2"
		},
		{
			"bufferView":3,
			"componentType":5126,
			"count":5820,
			"type":"VEC2"
		},
		{
			"bufferView":4,
			"componentType":5126,
			"count":5820,
			"type":"VEC4"
		},
		{
			"bufferView":5,
			"componentType":5123,
			"count":21252,
			"type":"SCALAR"
		},
		{
			"bufferView":6,
			"componentType":5126,
			"count":1779,
			"max":[
				4.027888298034668,
				17.62456703186035,
				4.208061218261719
			],
			"min":[
				-4.188899993896484,
				3.25128173828125,
				-4.038679122924805
			],
			"type":"VEC3"
		},
		{
			"bufferView":7,
			"componentType":5126,
			"count":1779,
			"type":"VEC3"
		},
		{
			"bufferView":8,
			"componentType":5126,
			"count":1779,
			"type":"VEC2"
		},
		{
			"bufferView":9,
			"componentType":5126,
			"count":1779,
			"type":"VEC2"
		},
		{
			"bufferView":10,
			"componentType":5126,
			"count":1779,
			"type":"VEC4"
		},
		{
			"bufferView":11,
			"componentType":5123,
			"count":2289,
			"type":"SCALAR"
		}
	],
	"bufferViews":[
		{
			"buffer":0,
			"byteLength":69840,
			"byteOffset":0,
			"target":34962
		},
		{
			"buffer":0,
			"byteLength":69840,
			"byteOffset":69840,
			"target":34962
		},
		{
			"buffer":0,
			"byteLength":46560,
			"byteOffset":139680,
			"target":34962
		},
		{
			"buffer":0,
			"byteLength":46560,
			"byteOffset":186240,
			"target":34962
		},
		{
			"buffer":0,
			"byteLength":93120,
			"byteOffset":232800,
			"target":34962
		},
		{
			"buffer":0,
			"byteLength":42504,
			"byteOffset":325920,
			"target":34963
		},
		{
			"buffer":0,
			"byteLength":21348,
			"byteOffset":368424,
			"target":34962
		},
		{
			"buffer":0,
			"byteLength":21348,
			"byteOffset":389772,
			"target":34962
		},
		{
			"buffer":0,
			"byteLength":14232,
			"byteOffset":411120,
			"target":34962
		},
		{
			"buffer":0,
			"byteLength":14232,
			"byteOffset":425352,
			"target":34962
		},
		{
			"buffer":0,
			"byteLength":28464,
			"byteOffset":439584,
			"target":34962
		},
		{
			"buffer":0,
			"byteLength":4578,
			"byteOffset":468048,
			"target":34963
		}
	],
	"samplers":[
		{
			"magFilter":9729,
			"minFilter":9987
		},
		{
			"magFilter":9729,
			"minFilter":9987,
			"wrapS":33071,
			"wrapT":33071
		}
	],
	"buffers":[
		{
			"byteLength":472628,
			"uri":"pine_tree.bin"
		}
	]
}
