{
	"asset":{
		"generator":"Khronos glTF Blender I/O v5.1.18",
		"version":"2.0"
	},
	"scene":0,
	"scenes":[
		{
			"name":"Scene",
			"nodes":[
				0
			]
		}
	],
	"nodes":[
		{
			"mesh":0,
			"name":"Plane",
			"scale":[
				100,
				100,
				100
			]
		}
	],
	"materials":[
		{
			"doubleSided":true,
			"name":"terrain",
			"normalTexture":{
				"index":0
			},
			"pbrMetallicRoughness":{
				"baseColorTexture":{
					"index":1
				},
				"metallicRoughnessTexture":{
					"index":2
				}
			}
		}
	],
	"meshes":[
		{
			"name":"Plane.001",
			"primitives":[
				{
					"attributes":{
						"POSITION":0,
						"NORMAL":1,
						"TEXCOORD_0":2,
						"TANGENT":3
					},
					"indices":4,
					"material":0
				}
			]
		}
	],
	"textures":[
		{
			"sampler":0,
			"source":0
		},
		{
			"sampler":0,
			"source":1
		},
		{
			"sampler":0,
			"source":2
		}
	],
	"images":[
		{
			"mimeType":"image/jpeg",
			"name":"normal",
			"uri":"normal.jpg"
		},
		{
			"mimeType":"image/jpeg",
			"name":"albedo",
			"uri":"albedo.jpg"
		},
		{
			"mimeType":"image/jpeg",
			"name":"aorm",
			"uri":"aorm.jpg"
		}
	],
	"accessors":[
		{
			"bufferView":0,
			"componentType":5126,
			"count":10079,
			"max":[
				1,
				0.1656128466129303,
				1
			],
			"min":[
				-1,
				0,
				-1
			],
			"type":"VEC3"
		},
		{
			"bufferView":1,
			"componentType":5126,
			"count":10079,
			"type":"VEC3"
		},
		{
			"bufferView":2,
			"componentType":5126,
			"count":10079,
			"type":"VEC2"
		},
		{
			"bufferView":3,
			"componentType":5126,
			"count":10079,
			"type":"VEC4"
		},
		{
			"bufferView":4,
			"componentType":5123,
			"count":24576,
			"type":"SCALAR"
		}
	],
	"bufferViews":[
		{
			"buffer":0,
			"byteLength":120948,
			"byteOffset":0,
			"target":34962
		},
		{
			"buffer":0,
			"byteLength":120948,
			"byteOffset":120948,
			"target":34962
		},
		{
			"buffer":0,
			"byteLength":80632,
			"byteOffset":241896,
			"target":34962
		},
		{
			"buffer":0,
			"byteLength":161264,
			"byteOffset":322528,
			"target":34962
		},
		{
			"buffer":0,
			"byteLength":49152,
			"byteOffset":483792,
			"target":34963
		}
	],
	"samplers":[
		{
			"magFilter":9729,
			"minFilter":9987
		}
	],
	"buffers":[
		{
			"byteLength":532944,
			"uri":"terrain.bin"
		}
	]
}
