{
	"asset":{
		"generator":"Khronos glTF Blender I/O v5.1.19",
		"version":"2.0"
	},
	"extensionsUsed":[
		"KHR_materials_specular"
	],
	"scene":0,
	"scenes":[
		{
			"name":"Scene",
			"nodes":[
				0
			]
		}
	],
	"nodes":[
		{
			"mesh":0,
			"name":"pawn_black_low_Black_0",
			"rotation":[
				0,
				-0.22237271070480347,
				0,
				0.9749617576599121
			],
			"scale":[
				0.009999998845160007,
				0.010000001639127731,
				0.009999999776482582
			]
		}
	],
	"materials":[
		{
			"doubleSided":true,
			"extensions":{
				"KHR_materials_specular":{
					"specularFactor":0.30000001192092896
				}
			},
			"name":"Black",
			"normalTexture":{
				"index":0
			},
			"occlusionTexture":{
				"index":1,
				"strength":0.5
			},
			"pbrMetallicRoughness":{
				"baseColorTexture":{
					"index":2
				},
				"metallicRoughnessTexture":{
					"index":1
				}
			}
		}
	],
	"meshes":[
		{
			"name":"pawn_black_low_Black_0",
			"primitives":[
				{
					"attributes":{
						"POSITION":0,
						"NORMAL":1,
						"TEXCOORD_0":2,
						"TEXCOORD_1":3,
						"TANGENT":4
					},
					"indices":5,
					"material":0
				}
			]
		}
	],
	"textures":[
		{
			"sampler":0,
			"source":0
		},
		{
			"sampler":0,
			"source":1
		},
		{
			"sampler":0,
			"source":2
		}
	],
	"images":[
		{
			"mimeType":"image/png",
			"name":"Black_normal",
			"uri":"../../../textures/chess/black/normal.png"
		},
		{
			"mimeType":"image/png",
			"name":"Black_metallicRoughness",
			"uri":"../../../textures/chess/black/metallic_roughness.png"
		},
		{
			"mimeType":"image/png",
			"name":"Black_baseColor",
			"uri":"../../../textures/chess/black/albedo.png"
		}
	],
	"accessors":[
		{
			"bufferView":0,
			"componentType":5126,
			"count":601,
			"max":[
				9.676798820495605,
				35.540035247802734,
				9.434192657470703
			],
			"min":[
				-9.676806449890137,
				0,
				-9.434194564819336
			],
			"type":"VEC3"
		},
		{
			"bufferView":1,
			"componentType":5126,
			"count":601,
			"type":"VEC3"
		},
		{
			"bufferView":2,
			"componentType":5126,
			"count":601,
			"type":"VEC2"
		},
		{
			"bufferView":3,
			"componentType":5126,
			"count":601,
			"type":"VEC2"
		},
		{
			"bufferView":4,
			"componentType":5126,
			"count":601,
			"type":"VEC4"
		},
		{
			"bufferView":5,
			"componentType":5123,
			"count":2856,
			"type":"SCALAR"
		}
	],
	"bufferViews":[
		{
			"buffer":0,
			"byteLength":7212,
			"byteOffset":0,
			"target":34962
		},
		{
			"buffer":0,
			"byteLength":7212,
			"byteOffset":7212,
			"target":34962
		},
		{
			"buffer":0,
			"byteLength":4808,
			"byteOffset":14424,
			"target":34962
		},
		{
			"buffer":0,
			"byteLength":4808,
			"byteOffset":19232,
			"target":34962
		},
		{
			"buffer":0,
			"byteLength":9616,
			"byteOffset":24040,
			"target":34962
		},
		{
			"buffer":0,
			"byteLength":5712,
			"byteOffset":33656,
			"target":34963
		}
	],
	"samplers":[
		{
			"magFilter":9729,
			"minFilter":9987
		}
	],
	"buffers":[
		{
			"byteLength":39368,
			"uri":"pawn.bin"
		}
	]
}
