{
	"asset":{
		"generator":"Khronos glTF Blender I/O v5.1.19",
		"version":"2.0"
	},
	"scene":0,
	"scenes":[
		{
			"name":"Scene",
			"nodes":[
				0
			]
		}
	],
	"nodes":[
		{
			"mesh":0,
			"name":"Duck",
			"scale":[
				0.009999999776482582,
				0.009999999776482582,
				0.009999999776482582
			]
		}
	],
	"materials":[
		{
			"name":"Duck",
			"pbrMetallicRoughness":{
				"baseColorTexture":{
					"index":0
				},
				"metallicFactor":0
			}
		}
	],
	"meshes":[
		{
			"name":"Duck",
			"primitives":[
				{
					"attributes":{
						"POSITION":0,
						"NORMAL":1,
						"TEXCOORD_0":2,
						"TANGENT":3
					},
					"indices":4,
					"material":0
				}
			]
		}
	],
	"textures":[
		{
			"sampler":0,
			"source":0
		}
	],
	"images":[
		{
			"mimeType":"image/png",
			"name":"albedo",
			"uri":"albedo.png"
		}
	],
	"accessors":[
		{
			"bufferView":0,
			"componentType":5126,
			"count":2661,
			"max":[
				82.94320678710938,
				155.00978088378906,
				53.92519760131836
			],
			"min":[
				-82.53519439697266,
				0.9691457748413086,
				-61.32819747924805
			],
			"type":"VEC3"
		},
		{
			"bufferView":1,
			"componentType":5126,
			"count":2661,
			"type":"VEC3"
		},
		{
			"bufferView":2,
			"componentType":5126,
			"count":2661,
			"type":"VEC2"
		},
		{
			"bufferView":3,
			"componentType":5126,
			"count":2661,
			"type":"VEC4"
		},
		{
			"bufferView":4,
			"componentType":5123,
			"count":12636,
			"type":"SCALAR"
		}
	],
	"bufferViews":[
		{
			"buffer":0,
			"byteLength":31932,
			"byteOffset":0,
			"target":34962
		},
		{
			"buffer":0,
			"byteLength":31932,
			"byteOffset":31932,
			"target":34962
		},
		{
			"buffer":0,
			"byteLength":21288,
			"byteOffset":63864,
			"target":34962
		},
		{
			"buffer":0,
			"byteLength":42576,
			"byteOffset":85152,
			"target":34962
		},
		{
			"buffer":0,
			"byteLength":25272,
			"byteOffset":127728,
			"target":34963
		}
	],
	"samplers":[
		{
			"magFilter":9729,
			"minFilter":9987
		}
	],
	"buffers":[
		{
			"byteLength":153000,
			"uri":"duck.bin"
		}
	]
}
