{
	"asset":{
		"generator":"Khronos glTF Blender I/O v5.1.18",
		"version":"2.0"
	},
	"extensionsUsed":[
		"KHR_materials_specular"
	],
	"scene":0,
	"scenes":[
		{
			"name":"Scene",
			"nodes":[
				0,
				1,
				2
			]
		}
	],
	"nodes":[
		{
			"mesh":0,
			"name":"bolt",
			"scale":[
				0.6230119466781616,
				0.6230119466781616,
				0.6230119466781616
			]
		},
		{
			"mesh":1,
			"name":"gun",
			"scale":[
				0.6230119466781616,
				0.6230119466781616,
				0.6230119466781616
			]
		},
		{
			"mesh":2,
			"name":"magazine",
			"scale":[
				0.6230119466781616,
				0.6230119466781616,
				0.6230119466781616
			]
		}
	],
	"materials":[
		{
			"doubleSided":true,
			"extensions":{
				"KHR_materials_specular":{
					"specularFactor":0
				}
			},
			"name":"atlas",
			"pbrMetallicRoughness":{
				"baseColorTexture":{
					"index":0
				},
				"metallicFactor":0
			}
		}
	],
	"meshes":[
		{
			"name":"bolt",
			"primitives":[
				{
					"attributes":{
						"POSITION":0,
						"NORMAL":1,
						"TEXCOORD_0":2,
						"TANGENT":3
					},
					"indices":4,
					"material":0
				}
			]
		},
		{
			"name":"gun",
			"primitives":[
				{
					"attributes":{
						"POSITION":5,
						"NORMAL":6,
						"TEXCOORD_0":7,
						"TANGENT":8
					},
					"indices":9,
					"material":0
				}
			]
		},
		{
			"name":"magazine",
			"primitives":[
				{
					"attributes":{
						"POSITION":10,
						"NORMAL":11,
						"TEXCOORD_0":12,
						"TANGENT":13
					},
					"indices":14,
					"material":0
				}
			]
		}
	],
	"textures":[
		{
			"sampler":0,
			"source":0
		}
	],
	"images":[
		{
			"mimeType":"image/png",
			"name":"atlas",
			"uri":"atlas.png"
		}
	],
	"accessors":[
		{
			"bufferView":0,
			"componentType":5126,
			"count":922,
			"max":[
				0.5231621265411377,
				0.18420632183551788,
				0.04676838964223862
			],
			"min":[
				0.1571837067604065,
				0.11925935000181198,
				-0.011302863247692585
			],
			"type":"VEC3"
		},
		{
			"bufferView":1,
			"componentType":5126,
			"count":922,
			"type":"VEC3"
		},
		{
			"bufferView":2,
			"componentType":5126,
			"count":922,
			"type":"VEC2"
		},
		{
			"bufferView":3,
			"componentType":5126,
			"count":922,
			"type":"VEC4"
		},
		{
			"bufferView":4,
			"componentType":5123,
			"count":996,
			"type":"SCALAR"
		},
		{
			"bufferView":5,
			"componentType":5126,
			"count":12327,
			"max":[
				0.8144949078559875,
				0.21224898099899292,
				0.02623923495411873
			],
			"min":[
				-0.3849765360355377,
				-0.08758949488401413,
				-0.024006659165024757
			],
			"type":"VEC3"
		},
		{
			"bufferView":6,
			"componentType":5126,
			"count":12327,
			"type":"VEC3"
		},
		{
			"bufferView":7,
			"componentType":5126,
			"count":12327,
			"type":"VEC2"
		},
		{
			"bufferView":8,
			"componentType":5126,
			"count":12327,
			"type":"VEC4"
		},
		{
			"bufferView":9,
			"componentType":5123,
			"count":14130,
			"type":"SCALAR"
		},
		{
			"bufferView":10,
			"componentType":5126,
			"count":4218,
			"max":[
				0.35119959712028503,
				0.12354674190282822,
				0.013396563939750195
			],
			"min":[
				0.14642439782619476,
				-0.19655458629131317,
				-0.013396470807492733
			],
			"type":"VEC3"
		},
		{
			"bufferView":11,
			"componentType":5126,
			"count":4218,
			"type":"VEC3"
		},
		{
			"bufferView":12,
			"componentType":5126,
			"count":4218,
			"type":"VEC2"
		},
		{
			"bufferView":13,
			"componentType":5126,
			"count":4218,
			"type":"VEC4"
		},
		{
			"bufferView":14,
			"componentType":5123,
			"count":4896,
			"type":"SCALAR"
		}
	],
	"bufferViews":[
		{
			"buffer":0,
			"byteLength":11064,
			"byteOffset":0,
			"target":34962
		},
		{
			"buffer":0,
			"byteLength":11064,
			"byteOffset":11064,
			"target":34962
		},
		{
			"buffer":0,
			"byteLength":7376,
			"byteOffset":22128,
			"target":34962
		},
		{
			"buffer":0,
			"byteLength":14752,
			"byteOffset":29504,
			"target":34962
		},
		{
			"buffer":0,
			"byteLength":1992,
			"byteOffset":44256,
			"target":34963
		},
		{
			"buffer":0,
			"byteLength":147924,
			"byteOffset":46248,
			"target":34962
		},
		{
			"buffer":0,
			"byteLength":147924,
			"byteOffset":194172,
			"target":34962
		},
		{
			"buffer":0,
			"byteLength":98616,
			"byteOffset":342096,
			"target":34962
		},
		{
			"buffer":0,
			"byteLength":197232,
			"byteOffset":440712,
			"target":34962
		},
		{
			"buffer":0,
			"byteLength":28260,
			"byteOffset":637944,
			"target":34963
		},
		{
			"buffer":0,
			"byteLength":50616,
			"byteOffset":666204,
			"target":34962
		},
		{
			"buffer":0,
			"byteLength":50616,
			"byteOffset":716820,
			"target":34962
		},
		{
			"buffer":0,
			"byteLength":33744,
			"byteOffset":767436,
			"target":34962
		},
		{
			"buffer":0,
			"byteLength":67488,
			"byteOffset":801180,
			"target":34962
		},
		{
			"buffer":0,
			"byteLength":9792,
			"byteOffset":868668,
			"target":34963
		}
	],
	"samplers":[
		{
			"magFilter":9729,
			"minFilter":9987
		}
	],
	"buffers":[
		{
			"byteLength":878460,
			"uri":"akm.bin"
		}
	]
}
