{
	"asset":{
		"generator":"Khronos glTF Blender I/O v4.4.56",
		"version":"2.0"
	},
	"scene":0,
	"scenes":[
		{
			"name":"Scene",
			"nodes":[
				0,
				1
			]
		}
	],
	"nodes":[
		{
			"mesh":0,
			"name":"EdgeOneBot",
			"rotation":[
				0,
				0.7071068286895752,
				0,
				0.7071068286895752
			],
			"translation":[
				0,
				0,
				0
			]
		},
		{
			"mesh":1,
			"name":"EdgeOneTop",
			"rotation":[
				0,
				0.7071068286895752,
				0,
				0.7071068286895752
			],
			"translation":[
				0,
				0,
				0
			]
		}
	],
	"materials":[
		{
			"doubleSided":true,
			"name":"Ground",
			"pbrMetallicRoughness":{
				"baseColorFactor":[
					0.7150564193725586,
					0.737588107585907,
					0.8101340532302856,
					1
				],
				"metallicFactor":0,
				"roughnessFactor":0.5
			}
		},
		{
			"doubleSided":true,
			"name":"Grass",
			"pbrMetallicRoughness":{
				"baseColorFactor":[
					0.5537770390510559,
					0.8008192181587219,
					0.08451356738805771,
					1
				],
				"metallicFactor":0,
				"roughnessFactor":0.5
			}
		}
	],
	"meshes":[
		{
			"name":"Cube.008",
			"primitives":[
				{
					"attributes":{
						"POSITION":0,
						"NORMAL":1,
						"TEXCOORD_0":2,
						"TANGENT":3
					},
					"indices":4,
					"material":0
				}
			]
		},
		{
			"name":"Cube.009",
			"primitives":[
				{
					"attributes":{
						"POSITION":5,
						"NORMAL":6,
						"TEXCOORD_0":7,
						"TANGENT":8
					},
					"indices":9,
					"material":1
				}
			]
		}
	],
	"accessors":[
		{
			"bufferView":0,
			"componentType":5126,
			"count":17,
			"max":[
				0.5,
				0.4000000059604645,
				-0.15000000596046448
			],
			"min":[
				0.15000000596046448,
				-0.5,
				-0.5
			],
			"type":"VEC3"
		},
		{
			"bufferView":1,
			"componentType":5126,
			"count":17,
			"type":"VEC3"
		},
		{
			"bufferView":2,
			"componentType":5126,
			"count":17,
			"type":"VEC2"
		},
		{
			"bufferView":3,
			"componentType":5126,
			"count":17,
			"type":"VEC4"
		},
		{
			"bufferView":4,
			"componentType":5123,
			"count":27,
			"type":"SCALAR"
		},
		{
			"bufferView":5,
			"componentType":5126,
			"count":27,
			"max":[
				0.5,
				0.5,
				-0.19999998807907104
			],
			"min":[
				0.1958795189857483,
				0.3999999761581421,
				-0.5
			],
			"type":"VEC3"
		},
		{
			"bufferView":6,
			"componentType":5126,
			"count":27,
			"type":"VEC3"
		},
		{
			"bufferView":7,
			"componentType":5126,
			"count":27,
			"type":"VEC2"
		},
		{
			"bufferView":8,
			"componentType":5126,
			"count":27,
			"type":"VEC4"
		},
		{
			"bufferView":9,
			"componentType":5123,
			"count":45,
			"type":"SCALAR"
		}
	],
	"bufferViews":[
		{
			"buffer":0,
			"byteLength":204,
			"byteOffset":0,
			"target":34962
		},
		{
			"buffer":0,
			"byteLength":204,
			"byteOffset":204,
			"target":34962
		},
		{
			"buffer":0,
			"byteLength":136,
			"byteOffset":408,
			"target":34962
		},
		{
			"buffer":0,
			"byteLength":272,
			"byteOffset":544,
			"target":34962
		},
		{
			"buffer":0,
			"byteLength":54,
			"byteOffset":816,
			"target":34963
		},
		{
			"buffer":0,
			"byteLength":324,
			"byteOffset":872,
			"target":34962
		},
		{
			"buffer":0,
			"byteLength":324,
			"byteOffset":1196,
			"target":34962
		},
		{
			"buffer":0,
			"byteLength":216,
			"byteOffset":1520,
			"target":34962
		},
		{
			"buffer":0,
			"byteLength":432,
			"byteOffset":1736,
			"target":34962
		},
		{
			"buffer":0,
			"byteLength":90,
			"byteOffset":2168,
			"target":34963
		}
	],
	"buffers":[
		{
			"byteLength":2260,
			"uri":"edge_one.bin"
		}
	]
}
