{
	"asset":{
		"generator":"Khronos glTF Blender I/O v5.1.18",
		"version":"2.0"
	},
	"scene":0,
	"scenes":[
		{
			"name":"Scene",
			"nodes":[
				0
			]
		}
	],
	"nodes":[
		{
			"mesh":0,
			"name":"Cube_Material_0",
			"rotation":[
				-0.5000001788139343,
				-0.4999999403953552,
				-0.5000000596046448,
				0.4999999403953552
			],
			"scale":[
				0.7016674280166626,
				0.7016673684120178,
				0.7016673684120178
			]
		}
	],
	"materials":[
		{
			"doubleSided":true,
			"name":"Material.001",
			"pbrMetallicRoughness":{
				"metallicFactor":0,
				"roughnessFactor":0.7470178008079529
			}
		}
	],
	"meshes":[
		{
			"name":"Cube_Material_0",
			"primitives":[
				{
					"attributes":{
						"POSITION":0,
						"NORMAL":1,
						"TEXCOORD_0":2,
						"TANGENT":3
					},
					"indices":4,
					"material":0
				}
			]
		}
	],
	"accessors":[
		{
			"bufferView":0,
			"componentType":5126,
			"count":383,
			"max":[
				2.008164644241333,
				8.373475074768066,
				7.195068359375
			],
			"min":[
				-2.668351173400879,
				-8.3734769821167,
				-0.08303523063659668
			],
			"type":"VEC3"
		},
		{
			"bufferView":1,
			"componentType":5126,
			"count":383,
			"type":"VEC3"
		},
		{
			"bufferView":2,
			"componentType":5126,
			"count":383,
			"type":"VEC2"
		},
		{
			"bufferView":3,
			"componentType":5126,
			"count":383,
			"type":"VEC4"
		},
		{
			"bufferView":4,
			"componentType":5123,
			"count":666,
			"type":"SCALAR"
		}
	],
	"bufferViews":[
		{
			"buffer":0,
			"byteLength":4596,
			"byteOffset":0,
			"target":34962
		},
		{
			"buffer":0,
			"byteLength":4596,
			"byteOffset":4596,
			"target":34962
		},
		{
			"buffer":0,
			"byteLength":3064,
			"byteOffset":9192,
			"target":34962
		},
		{
			"buffer":0,
			"byteLength":6128,
			"byteOffset":12256,
			"target":34962
		},
		{
			"buffer":0,
			"byteLength":1332,
			"byteOffset":18384,
			"target":34963
		}
	],
	"buffers":[
		{
			"byteLength":19716,
			"uri":"house_1.bin"
		}
	]
}
