{
	"asset":{
		"generator":"Khronos glTF Blender I/O v4.4.56",
		"version":"2.0"
	},
	"scene":0,
	"scenes":[
		{
			"name":"Scene",
			"nodes":[
				0
			]
		}
	],
	"nodes":[
		{
			"mesh":0,
			"name":"Cube.002",
      "translation":[
				0,
				0,
				0
			]
		}
	],
	"meshes":[
		{
			"name":"Cube.002",
			"primitives":[
				{
					"attributes":{
						"POSITION":0,
						"NORMAL":1,
						"TEXCOORD_0":2,
						"TANGENT":3
					},
					"indices":4
				}
			]
		}
	],
	"accessors":[
		{
			"bufferView":0,
			"componentType":5126,
			"count":78,
			"max":[
				0.5,
				0.5,
				0.5
			],
			"min":[
				-0.5,
				-0.5,
				-0.5
			],
			"type":"VEC3"
		},
		{
			"bufferView":1,
			"componentType":5126,
			"count":78,
			"type":"VEC3"
		},
		{
			"bufferView":2,
			"componentType":5126,
			"count":78,
			"type":"VEC2"
		},
		{
			"bufferView":3,
			"componentType":5126,
			"count":78,
			"type":"VEC4"
		},
		{
			"bufferView":4,
			"componentType":5123,
			"count":276,
			"type":"SCALAR"
		}
	],
	"bufferViews":[
		{
			"buffer":0,
			"byteLength":936,
			"byteOffset":0,
			"target":34962
		},
		{
			"buffer":0,
			"byteLength":936,
			"byteOffset":936,
			"target":34962
		},
		{
			"buffer":0,
			"byteLength":624,
			"byteOffset":1872,
			"target":34962
		},
		{
			"buffer":0,
			"byteLength":1248,
			"byteOffset":2496,
			"target":34962
		},
		{
			"buffer":0,
			"byteLength":552,
			"byteOffset":3744,
			"target":34963
		}
	],
	"buffers":[
		{
			"byteLength":4296,
			"uri":"diagonal.bin"
		}
	]
}
